<mxfile host="app.diagrams.net" modified="2023-07-19T07:37:20.682Z" agent="Mozilla/5.0 (Windows NT 10.0; Win64; x64) AppleWebKit/537.36 (KHTML, like Gecko) Chrome/114.0.0.0 Safari/537.36" etag="ExKCHHrfP6nHBkn0QW7J" version="21.6.3" type="github">
  <diagram name="Page-1" id="w2bBaYfWitcieAzv9LnU">
    <mxGraphModel dx="1996" dy="804" grid="1" gridSize="10" guides="1" tooltips="1" connect="1" arrows="1" fold="1" page="1" pageScale="1" pageWidth="827" pageHeight="1169" math="0" shadow="0">
      <root>
        <mxCell id="0" />
        <mxCell id="1" parent="0" />
        <mxCell id="fyddSBHif7DwTyY2rSdU-18" style="edgeStyle=orthogonalEdgeStyle;rounded=0;orthogonalLoop=1;jettySize=auto;html=1;" parent="1" source="fyddSBHif7DwTyY2rSdU-6" target="fyddSBHif7DwTyY2rSdU-14" edge="1">
          <mxGeometry relative="1" as="geometry" />
        </mxCell>
        <mxCell id="fyddSBHif7DwTyY2rSdU-57" style="edgeStyle=orthogonalEdgeStyle;rounded=0;orthogonalLoop=1;jettySize=auto;html=1;startArrow=classic;startFill=1;exitX=0.5;exitY=1;exitDx=0;exitDy=0;" parent="1" source="fyddSBHif7DwTyY2rSdU-6" target="fyddSBHif7DwTyY2rSdU-44" edge="1">
          <mxGeometry relative="1" as="geometry">
            <Array as="points">
              <mxPoint x="225" y="135" />
              <mxPoint x="340" y="135" />
              <mxPoint x="340" y="195" />
            </Array>
          </mxGeometry>
        </mxCell>
        <mxCell id="3AUkhaHC_XbrO4-waznp-2" style="edgeStyle=orthogonalEdgeStyle;rounded=0;orthogonalLoop=1;jettySize=auto;html=1;" parent="1" source="fyddSBHif7DwTyY2rSdU-6" target="fyddSBHif7DwTyY2rSdU-62" edge="1">
          <mxGeometry relative="1" as="geometry" />
        </mxCell>
        <mxCell id="7gZsSY8mySrFftTI9Kel-41" style="edgeStyle=orthogonalEdgeStyle;rounded=0;orthogonalLoop=1;jettySize=auto;html=1;entryX=0;entryY=0.5;entryDx=0;entryDy=0;" edge="1" parent="1" source="fyddSBHif7DwTyY2rSdU-6" target="7gZsSY8mySrFftTI9Kel-40">
          <mxGeometry relative="1" as="geometry" />
        </mxCell>
        <mxCell id="fyddSBHif7DwTyY2rSdU-6" value="Client" style="ellipse;whiteSpace=wrap;html=1;align=center;" parent="1" vertex="1">
          <mxGeometry x="160" y="40" width="130" height="60" as="geometry" />
        </mxCell>
        <mxCell id="7gZsSY8mySrFftTI9Kel-2" style="edgeStyle=orthogonalEdgeStyle;rounded=0;orthogonalLoop=1;jettySize=auto;html=1;entryX=0;entryY=0.5;entryDx=0;entryDy=0;" edge="1" parent="1" source="fyddSBHif7DwTyY2rSdU-8" target="7gZsSY8mySrFftTI9Kel-1">
          <mxGeometry relative="1" as="geometry" />
        </mxCell>
        <mxCell id="fyddSBHif7DwTyY2rSdU-8" value="Database" style="shape=datastore;whiteSpace=wrap;html=1;fillColor=#e6d0de;strokeColor=#996185;gradientColor=#d5739d;" parent="1" vertex="1">
          <mxGeometry x="550" y="720" width="70" height="60" as="geometry" />
        </mxCell>
        <mxCell id="fyddSBHif7DwTyY2rSdU-17" value="" style="group" parent="1" vertex="1" connectable="0">
          <mxGeometry x="170" y="130" width="131" height="90" as="geometry" />
        </mxCell>
        <mxCell id="fyddSBHif7DwTyY2rSdU-30" value="" style="group" parent="fyddSBHif7DwTyY2rSdU-17" vertex="1" connectable="0">
          <mxGeometry y="20" width="131" height="70" as="geometry" />
        </mxCell>
        <mxCell id="fyddSBHif7DwTyY2rSdU-16" value="" style="verticalLabelPosition=bottom;verticalAlign=top;html=1;shape=mxgraph.basic.rect;fillColor2=none;strokeWidth=1;size=20;indent=5;fillColor=#d5e8d4;strokeColor=#82b366;gradientColor=#97d077;" parent="fyddSBHif7DwTyY2rSdU-30" vertex="1">
          <mxGeometry x="20" y="20" width="111" height="50" as="geometry" />
        </mxCell>
        <mxCell id="fyddSBHif7DwTyY2rSdU-15" value="" style="verticalLabelPosition=bottom;verticalAlign=top;html=1;shape=mxgraph.basic.rect;fillColor2=none;strokeWidth=1;size=20;indent=5;fillColor=#d5e8d4;strokeColor=#82b366;gradientColor=#97d077;" parent="fyddSBHif7DwTyY2rSdU-30" vertex="1">
          <mxGeometry x="10" y="10" width="111" height="50" as="geometry" />
        </mxCell>
        <mxCell id="fyddSBHif7DwTyY2rSdU-14" value="Load Balancer" style="html=1;whiteSpace=wrap;fillColor=#d5e8d4;strokeColor=#82b366;gradientColor=#97d077;" parent="fyddSBHif7DwTyY2rSdU-30" vertex="1">
          <mxGeometry width="110" height="50" as="geometry" />
        </mxCell>
        <mxCell id="fyddSBHif7DwTyY2rSdU-45" style="edgeStyle=orthogonalEdgeStyle;rounded=0;orthogonalLoop=1;jettySize=auto;html=1;exitX=1;exitY=0.5;exitDx=0;exitDy=0;entryX=0;entryY=0.5;entryDx=0;entryDy=0;" parent="1" target="7gZsSY8mySrFftTI9Kel-16" edge="1">
          <mxGeometry relative="1" as="geometry">
            <mxPoint x="300" y="425" as="sourcePoint" />
            <mxPoint x="360.0000000000002" y="365" as="targetPoint" />
          </mxGeometry>
        </mxCell>
        <mxCell id="fyddSBHif7DwTyY2rSdU-46" style="edgeStyle=orthogonalEdgeStyle;rounded=0;orthogonalLoop=1;jettySize=auto;html=1;exitX=1;exitY=0.5;exitDx=0;exitDy=0;" parent="1" edge="1">
          <mxGeometry relative="1" as="geometry">
            <mxPoint x="300" y="425" as="sourcePoint" />
            <mxPoint x="360.0000000000002" y="425" as="targetPoint" />
          </mxGeometry>
        </mxCell>
        <mxCell id="fyddSBHif7DwTyY2rSdU-47" style="edgeStyle=orthogonalEdgeStyle;rounded=0;orthogonalLoop=1;jettySize=auto;html=1;exitX=0.982;exitY=0.089;exitDx=0;exitDy=0;entryX=0;entryY=0.5;entryDx=0;entryDy=0;exitPerimeter=0;" parent="1" source="7gZsSY8mySrFftTI9Kel-10" edge="1">
          <mxGeometry relative="1" as="geometry">
            <mxPoint x="300" y="425" as="sourcePoint" />
            <mxPoint x="360.0000000000002" y="485" as="targetPoint" />
          </mxGeometry>
        </mxCell>
        <mxCell id="fyddSBHif7DwTyY2rSdU-36" value="" style="group" parent="1" vertex="1" connectable="0">
          <mxGeometry x="170" y="250" width="131" height="90" as="geometry" />
        </mxCell>
        <mxCell id="fyddSBHif7DwTyY2rSdU-37" value="" style="group" parent="fyddSBHif7DwTyY2rSdU-36" vertex="1" connectable="0">
          <mxGeometry y="20" width="131" height="70" as="geometry" />
        </mxCell>
        <mxCell id="fyddSBHif7DwTyY2rSdU-38" value="" style="verticalLabelPosition=bottom;verticalAlign=top;html=1;shape=mxgraph.basic.rect;fillColor2=none;strokeWidth=1;size=20;indent=5;fillColor=#f8cecc;strokeColor=#b85450;gradientColor=#ea6b66;" parent="fyddSBHif7DwTyY2rSdU-37" vertex="1">
          <mxGeometry x="20" y="20" width="111" height="50" as="geometry" />
        </mxCell>
        <mxCell id="fyddSBHif7DwTyY2rSdU-39" value="" style="verticalLabelPosition=bottom;verticalAlign=top;html=1;shape=mxgraph.basic.rect;fillColor2=none;strokeWidth=1;size=20;indent=5;fillColor=#f8cecc;strokeColor=#b85450;gradientColor=#ea6b66;" parent="fyddSBHif7DwTyY2rSdU-37" vertex="1">
          <mxGeometry x="10" y="10" width="111" height="50" as="geometry" />
        </mxCell>
        <mxCell id="fyddSBHif7DwTyY2rSdU-40" value="WebServer" style="html=1;whiteSpace=wrap;fillColor=#f8cecc;strokeColor=#b85450;gradientColor=#ea6b66;" parent="fyddSBHif7DwTyY2rSdU-37" vertex="1">
          <mxGeometry width="110" height="50" as="geometry" />
        </mxCell>
        <mxCell id="fyddSBHif7DwTyY2rSdU-59" style="edgeStyle=orthogonalEdgeStyle;rounded=0;orthogonalLoop=1;jettySize=auto;html=1;curved=1;exitX=1.018;exitY=0.499;exitDx=0;exitDy=0;exitPerimeter=0;" parent="1" source="7gZsSY8mySrFftTI9Kel-22" edge="1">
          <mxGeometry relative="1" as="geometry">
            <mxPoint x="490.0000000000002" y="485.0344827586207" as="sourcePoint" />
            <mxPoint x="574" y="620" as="targetPoint" />
          </mxGeometry>
        </mxCell>
        <mxCell id="fyddSBHif7DwTyY2rSdU-44" value="Client-Side Caching" style="html=1;whiteSpace=wrap;fillColor=#ffcd28;gradientColor=#ffa500;strokeColor=#d79b00;" parent="1" vertex="1">
          <mxGeometry x="360" y="170" width="130" height="50" as="geometry" />
        </mxCell>
        <mxCell id="fyddSBHif7DwTyY2rSdU-51" style="edgeStyle=orthogonalEdgeStyle;rounded=0;orthogonalLoop=1;jettySize=auto;html=1;entryX=0.5;entryY=0;entryDx=0;entryDy=0;" parent="1" source="fyddSBHif7DwTyY2rSdU-39" edge="1">
          <mxGeometry relative="1" as="geometry">
            <mxPoint x="235" y="400" as="targetPoint" />
          </mxGeometry>
        </mxCell>
        <mxCell id="fyddSBHif7DwTyY2rSdU-54" style="edgeStyle=orthogonalEdgeStyle;rounded=0;orthogonalLoop=1;jettySize=auto;html=1;exitX=0.5;exitY=1;exitDx=0;exitDy=0;entryX=0.5;entryY=0;entryDx=0;entryDy=0;" parent="1" source="fyddSBHif7DwTyY2rSdU-14" target="fyddSBHif7DwTyY2rSdU-40" edge="1">
          <mxGeometry relative="1" as="geometry" />
        </mxCell>
        <mxCell id="fyddSBHif7DwTyY2rSdU-60" style="edgeStyle=orthogonalEdgeStyle;rounded=0;orthogonalLoop=1;jettySize=auto;html=1;curved=1;exitX=1.018;exitY=0.375;exitDx=0;exitDy=0;exitPerimeter=0;" parent="1" source="7gZsSY8mySrFftTI9Kel-18" target="7gZsSY8mySrFftTI9Kel-30" edge="1">
          <mxGeometry relative="1" as="geometry">
            <mxPoint x="490.0000000000002" y="425" as="sourcePoint" />
            <mxPoint x="600" y="610" as="targetPoint" />
          </mxGeometry>
        </mxCell>
        <mxCell id="fyddSBHif7DwTyY2rSdU-61" style="edgeStyle=orthogonalEdgeStyle;rounded=0;orthogonalLoop=1;jettySize=auto;html=1;entryX=0.485;entryY=-0.039;entryDx=0;entryDy=0;curved=1;exitX=1;exitY=0.5;exitDx=0;exitDy=0;entryPerimeter=0;" parent="1" target="7gZsSY8mySrFftTI9Kel-30" edge="1">
          <mxGeometry relative="1" as="geometry">
            <mxPoint x="490.0000000000002" y="365" as="sourcePoint" />
            <mxPoint x="585.0000000000002" y="600" as="targetPoint" />
          </mxGeometry>
        </mxCell>
        <mxCell id="fyddSBHif7DwTyY2rSdU-62" value="DNS" style="html=1;whiteSpace=wrap;fillColor=#dae8fc;gradientColor=#7ea6e0;strokeColor=#6c8ebf;" parent="1" vertex="1">
          <mxGeometry x="400" y="20" width="130" height="50" as="geometry" />
        </mxCell>
        <mxCell id="7gZsSY8mySrFftTI9Kel-1" value="Cache Database" style="shape=datastore;whiteSpace=wrap;html=1;fillColor=#e6d0de;strokeColor=#996185;gradientColor=#d5739d;" vertex="1" parent="1">
          <mxGeometry x="700" y="720" width="70" height="60" as="geometry" />
        </mxCell>
        <mxCell id="7gZsSY8mySrFftTI9Kel-3" style="edgeStyle=orthogonalEdgeStyle;rounded=0;orthogonalLoop=1;jettySize=auto;html=1;curved=1;exitX=1;exitY=0.5;exitDx=0;exitDy=0;entryX=0.5;entryY=0;entryDx=0;entryDy=0;" edge="1" parent="1" target="7gZsSY8mySrFftTI9Kel-34">
          <mxGeometry relative="1" as="geometry">
            <mxPoint x="490.0000000000002" y="365" as="sourcePoint" />
            <mxPoint x="730" y="620" as="targetPoint" />
          </mxGeometry>
        </mxCell>
        <mxCell id="7gZsSY8mySrFftTI9Kel-7" style="edgeStyle=orthogonalEdgeStyle;rounded=0;orthogonalLoop=1;jettySize=auto;html=1;curved=1;exitX=0.999;exitY=0.541;exitDx=0;exitDy=0;exitPerimeter=0;entryX=0.5;entryY=0;entryDx=0;entryDy=0;" edge="1" parent="1" target="7gZsSY8mySrFftTI9Kel-34">
          <mxGeometry relative="1" as="geometry">
            <mxPoint x="500.9989999999999" y="537.05" as="sourcePoint" />
            <mxPoint x="720.11" y="620" as="targetPoint" />
          </mxGeometry>
        </mxCell>
        <mxCell id="7gZsSY8mySrFftTI9Kel-8" style="edgeStyle=orthogonalEdgeStyle;rounded=0;orthogonalLoop=1;jettySize=auto;html=1;curved=1;exitX=0.968;exitY=0.348;exitDx=0;exitDy=0;exitPerimeter=0;" edge="1" parent="1" source="7gZsSY8mySrFftTI9Kel-18" target="7gZsSY8mySrFftTI9Kel-34">
          <mxGeometry relative="1" as="geometry">
            <mxPoint x="490.0000000000002" y="425.0344827586207" as="sourcePoint" />
            <mxPoint x="735" y="600" as="targetPoint" />
          </mxGeometry>
        </mxCell>
        <mxCell id="7gZsSY8mySrFftTI9Kel-9" value="" style="group" vertex="1" connectable="0" parent="1">
          <mxGeometry x="170" y="400" width="131" height="70" as="geometry" />
        </mxCell>
        <mxCell id="7gZsSY8mySrFftTI9Kel-10" value="" style="verticalLabelPosition=bottom;verticalAlign=top;html=1;shape=mxgraph.basic.rect;fillColor2=none;strokeWidth=1;size=20;indent=5;fillColor=#fff2cc;strokeColor=#d6b656;gradientColor=#ffd966;" vertex="1" parent="7gZsSY8mySrFftTI9Kel-9">
          <mxGeometry x="20" y="20" width="111" height="50" as="geometry" />
        </mxCell>
        <mxCell id="7gZsSY8mySrFftTI9Kel-11" value="" style="verticalLabelPosition=bottom;verticalAlign=top;html=1;shape=mxgraph.basic.rect;fillColor2=none;strokeWidth=1;size=20;indent=5;fillColor=#fff2cc;strokeColor=#d6b656;gradientColor=#ffd966;" vertex="1" parent="7gZsSY8mySrFftTI9Kel-9">
          <mxGeometry x="10" y="10" width="111" height="50" as="geometry" />
        </mxCell>
        <mxCell id="7gZsSY8mySrFftTI9Kel-12" value="Query API" style="html=1;whiteSpace=wrap;fillColor=#fff2cc;strokeColor=#d6b656;gradientColor=#ffd966;" vertex="1" parent="7gZsSY8mySrFftTI9Kel-9">
          <mxGeometry width="110" height="50" as="geometry" />
        </mxCell>
        <mxCell id="7gZsSY8mySrFftTI9Kel-13" value="" style="group" vertex="1" connectable="0" parent="1">
          <mxGeometry x="370" y="330" width="131" height="70" as="geometry" />
        </mxCell>
        <mxCell id="7gZsSY8mySrFftTI9Kel-14" value="" style="verticalLabelPosition=bottom;verticalAlign=top;html=1;shape=mxgraph.basic.rect;fillColor2=none;strokeWidth=1;size=20;indent=5;fillColor=#fff2cc;strokeColor=#d6b656;gradientColor=#ffd966;" vertex="1" parent="7gZsSY8mySrFftTI9Kel-13">
          <mxGeometry x="20" y="20" width="111" height="50" as="geometry" />
        </mxCell>
        <mxCell id="7gZsSY8mySrFftTI9Kel-15" value="" style="verticalLabelPosition=bottom;verticalAlign=top;html=1;shape=mxgraph.basic.rect;fillColor2=none;strokeWidth=1;size=20;indent=5;fillColor=#fff2cc;strokeColor=#d6b656;gradientColor=#ffd966;" vertex="1" parent="7gZsSY8mySrFftTI9Kel-13">
          <mxGeometry x="10" y="10" width="111" height="50" as="geometry" />
        </mxCell>
        <mxCell id="7gZsSY8mySrFftTI9Kel-16" value="Specification Service" style="html=1;whiteSpace=wrap;fillColor=#fff2cc;strokeColor=#d6b656;gradientColor=#ffd966;" vertex="1" parent="7gZsSY8mySrFftTI9Kel-13">
          <mxGeometry width="110" height="50" as="geometry" />
        </mxCell>
        <mxCell id="7gZsSY8mySrFftTI9Kel-17" value="" style="group" vertex="1" connectable="0" parent="1">
          <mxGeometry x="370" y="410" width="131" height="70" as="geometry" />
        </mxCell>
        <mxCell id="7gZsSY8mySrFftTI9Kel-18" value="" style="verticalLabelPosition=bottom;verticalAlign=top;html=1;shape=mxgraph.basic.rect;fillColor2=none;strokeWidth=1;size=20;indent=5;fillColor=#fff2cc;strokeColor=#d6b656;gradientColor=#ffd966;" vertex="1" parent="7gZsSY8mySrFftTI9Kel-17">
          <mxGeometry x="20" y="20" width="111" height="50" as="geometry" />
        </mxCell>
        <mxCell id="7gZsSY8mySrFftTI9Kel-19" value="" style="verticalLabelPosition=bottom;verticalAlign=top;html=1;shape=mxgraph.basic.rect;fillColor2=none;strokeWidth=1;size=20;indent=5;fillColor=#fff2cc;strokeColor=#d6b656;gradientColor=#ffd966;" vertex="1" parent="7gZsSY8mySrFftTI9Kel-17">
          <mxGeometry x="10" y="10" width="111" height="50" as="geometry" />
        </mxCell>
        <mxCell id="7gZsSY8mySrFftTI9Kel-20" value="Linking Service" style="html=1;whiteSpace=wrap;fillColor=#fff2cc;strokeColor=#d6b656;gradientColor=#ffd966;" vertex="1" parent="7gZsSY8mySrFftTI9Kel-17">
          <mxGeometry width="110" height="50" as="geometry" />
        </mxCell>
        <mxCell id="7gZsSY8mySrFftTI9Kel-21" value="" style="group" vertex="1" connectable="0" parent="1">
          <mxGeometry x="370" y="490" width="131" height="70" as="geometry" />
        </mxCell>
        <mxCell id="7gZsSY8mySrFftTI9Kel-22" value="" style="verticalLabelPosition=bottom;verticalAlign=top;html=1;shape=mxgraph.basic.rect;fillColor2=none;strokeWidth=1;size=20;indent=5;fillColor=#fff2cc;strokeColor=#d6b656;gradientColor=#ffd966;" vertex="1" parent="7gZsSY8mySrFftTI9Kel-21">
          <mxGeometry x="20" y="20" width="111" height="50" as="geometry" />
        </mxCell>
        <mxCell id="7gZsSY8mySrFftTI9Kel-23" value="" style="verticalLabelPosition=bottom;verticalAlign=top;html=1;shape=mxgraph.basic.rect;fillColor2=none;strokeWidth=1;size=20;indent=5;fillColor=#fff2cc;strokeColor=#d6b656;gradientColor=#ffd966;" vertex="1" parent="7gZsSY8mySrFftTI9Kel-21">
          <mxGeometry x="10" y="10" width="111" height="50" as="geometry" />
        </mxCell>
        <mxCell id="7gZsSY8mySrFftTI9Kel-24" value="Result Service" style="html=1;whiteSpace=wrap;fillColor=#fff2cc;strokeColor=#d6b656;gradientColor=#ffd966;" vertex="1" parent="7gZsSY8mySrFftTI9Kel-21">
          <mxGeometry width="110" height="50" as="geometry" />
        </mxCell>
        <mxCell id="7gZsSY8mySrFftTI9Kel-27" value="" style="group" vertex="1" connectable="0" parent="1">
          <mxGeometry x="520" y="620" width="131" height="70" as="geometry" />
        </mxCell>
        <mxCell id="7gZsSY8mySrFftTI9Kel-28" value="" style="verticalLabelPosition=bottom;verticalAlign=top;html=1;shape=mxgraph.basic.rect;fillColor2=none;strokeWidth=1;size=20;indent=5;fillColor=#fff2cc;strokeColor=#d6b656;gradientColor=#ffd966;" vertex="1" parent="7gZsSY8mySrFftTI9Kel-27">
          <mxGeometry x="20" y="20" width="111" height="50" as="geometry" />
        </mxCell>
        <mxCell id="7gZsSY8mySrFftTI9Kel-29" value="" style="verticalLabelPosition=bottom;verticalAlign=top;html=1;shape=mxgraph.basic.rect;fillColor2=none;strokeWidth=1;size=20;indent=5;fillColor=#fff2cc;strokeColor=#d6b656;gradientColor=#ffd966;" vertex="1" parent="7gZsSY8mySrFftTI9Kel-27">
          <mxGeometry x="10" y="10" width="111" height="50" as="geometry" />
        </mxCell>
        <mxCell id="7gZsSY8mySrFftTI9Kel-30" value="Write Service" style="html=1;whiteSpace=wrap;fillColor=#fff2cc;strokeColor=#d6b656;gradientColor=#ffd966;" vertex="1" parent="7gZsSY8mySrFftTI9Kel-27">
          <mxGeometry width="110" height="50" as="geometry" />
        </mxCell>
        <mxCell id="7gZsSY8mySrFftTI9Kel-31" value="" style="group" vertex="1" connectable="0" parent="1">
          <mxGeometry x="670" y="620" width="131" height="70" as="geometry" />
        </mxCell>
        <mxCell id="7gZsSY8mySrFftTI9Kel-32" value="" style="verticalLabelPosition=bottom;verticalAlign=top;html=1;shape=mxgraph.basic.rect;fillColor2=none;strokeWidth=1;size=20;indent=5;fillColor=#fff2cc;strokeColor=#d6b656;gradientColor=#ffd966;" vertex="1" parent="7gZsSY8mySrFftTI9Kel-31">
          <mxGeometry x="20" y="20" width="111" height="50" as="geometry" />
        </mxCell>
        <mxCell id="7gZsSY8mySrFftTI9Kel-33" value="" style="verticalLabelPosition=bottom;verticalAlign=top;html=1;shape=mxgraph.basic.rect;fillColor2=none;strokeWidth=1;size=20;indent=5;fillColor=#fff2cc;strokeColor=#d6b656;gradientColor=#ffd966;" vertex="1" parent="7gZsSY8mySrFftTI9Kel-31">
          <mxGeometry x="10" y="10" width="111" height="50" as="geometry" />
        </mxCell>
        <mxCell id="7gZsSY8mySrFftTI9Kel-34" value="Read Service" style="html=1;whiteSpace=wrap;fillColor=#fff2cc;strokeColor=#d6b656;gradientColor=#ffd966;" vertex="1" parent="7gZsSY8mySrFftTI9Kel-31">
          <mxGeometry width="110" height="50" as="geometry" />
        </mxCell>
        <mxCell id="7gZsSY8mySrFftTI9Kel-38" style="edgeStyle=orthogonalEdgeStyle;rounded=0;orthogonalLoop=1;jettySize=auto;html=1;entryX=0.5;entryY=0;entryDx=0;entryDy=0;" edge="1" parent="1" source="7gZsSY8mySrFftTI9Kel-29" target="fyddSBHif7DwTyY2rSdU-8">
          <mxGeometry relative="1" as="geometry" />
        </mxCell>
        <mxCell id="7gZsSY8mySrFftTI9Kel-39" style="edgeStyle=orthogonalEdgeStyle;rounded=0;orthogonalLoop=1;jettySize=auto;html=1;" edge="1" parent="1" source="7gZsSY8mySrFftTI9Kel-33" target="7gZsSY8mySrFftTI9Kel-1">
          <mxGeometry relative="1" as="geometry" />
        </mxCell>
        <mxCell id="7gZsSY8mySrFftTI9Kel-42" style="edgeStyle=orthogonalEdgeStyle;rounded=0;orthogonalLoop=1;jettySize=auto;html=1;entryX=0.5;entryY=0;entryDx=0;entryDy=0;startArrow=none;startFill=0;curved=1;" edge="1" parent="1" source="7gZsSY8mySrFftTI9Kel-40" target="7gZsSY8mySrFftTI9Kel-34">
          <mxGeometry relative="1" as="geometry" />
        </mxCell>
        <mxCell id="7gZsSY8mySrFftTI9Kel-40" value="CDN" style="html=1;whiteSpace=wrap;fillColor=#dae8fc;gradientColor=#7ea6e0;strokeColor=#6c8ebf;" vertex="1" parent="1">
          <mxGeometry x="400" y="80" width="130" height="50" as="geometry" />
        </mxCell>
      </root>
    </mxGraphModel>
  </diagram>
</mxfile>
